<svg xmlns="http://www.w3.org/2000/svg" xmlns:xlink="http://www.w3.org/1999/xlink" width="500" zoomAndPan="magnify" viewBox="0 0 375 374.999991" height="500" preserveAspectRatio="xMidYMid meet" version="1.0"><defs><g/><clipPath id="07877a8735"><path d="M 116 57 L 300.867188 57 L 300.867188 242 L 116 242 Z M 116 57 " clip-rule="nonzero"/></clipPath><clipPath id="bccfa34c95"><path d="M 74.367188 18.75 L 212 18.75 L 212 280.5 L 74.367188 280.5 Z M 74.367188 18.75 " clip-rule="nonzero"/></clipPath><clipPath id="36e3deefc3"><rect x="0" width="303" y="0" height="89"/></clipPath></defs><g clip-path="url(#07877a8735)"><path fill="#1d2c42" d="M 300.859375 241.492188 L 222.523438 57.757812 L 218.707031 57.757812 C 219.054688 74.679688 213.085938 91.425781 204.035156 107.371094 L 227.746094 165.132812 L 179.183594 165.132812 L 200.359375 113.546875 C 195.273438 121.699219 189.480469 129.621094 183.417969 137.203125 C 161.496094 164.648438 125.769531 202.632812 116.019531 241.492188 L 148.117188 241.492188 L 164.824219 200.578125 L 242.113281 200.578125 L 258.820312 241.492188 Z M 300.859375 241.492188 " fill-opacity="1" fill-rule="nonzero"/></g><g clip-path="url(#bccfa34c95)"><path fill="#ff3b10" d="M 151.609375 27.714844 C 163.40625 27.714844 172.957031 37.261719 172.957031 49.027344 C 172.957031 60.800781 163.394531 70.335938 151.609375 70.335938 C 139.8125 70.335938 130.257812 60.789062 130.257812 49.027344 C 130.257812 37.261719 139.824219 27.714844 151.609375 27.714844 M 196.414062 18.75 C 208 56.410156 190.457031 72.925781 155.925781 80.171875 C 113.96875 88.988281 81.613281 93.0625 74.378906 118.84375 C 122.464844 90.601562 138.148438 110.5625 114.515625 156.902344 C 89.769531 205.433594 85.152344 247.53125 109.09375 280.5 C 93.796875 226.382812 146.929688 171.566406 177.890625 132.816406 C 209.269531 93.539062 225.664062 55.007812 196.414062 18.75 Z M 196.414062 18.75 " fill-opacity="1" fill-rule="evenodd"/></g><g transform="matrix(1, 0, 0, 1, 41, 274)"><g clip-path="url(#36e3deefc3)"><g fill="#1d2c42" fill-opacity="1"><g transform="translate(1.306439, 69.384795)"><g><path d="M 33.046875 0 L 30.796875 -8.578125 L 15.90625 -8.578125 L 13.59375 0 L 0 0 L 14.9375 -45.984375 L 31.453125 -45.984375 L 46.578125 0 Z M 28.21875 -18.734375 L 26.25 -26.25 C 26.039062 -27.0625 25.738281 -28.222656 25.34375 -29.734375 C 24.945312 -31.253906 24.554688 -32.820312 24.171875 -34.4375 C 23.785156 -36.0625 23.488281 -37.394531 23.28125 -38.4375 C 23.09375 -37.394531 22.820312 -36.101562 22.46875 -34.5625 C 22.125 -33.03125 21.769531 -31.507812 21.40625 -30 C 21.039062 -28.5 20.722656 -27.25 20.453125 -26.25 L 18.484375 -18.734375 Z M 28.21875 -18.734375 "/></g></g></g><g fill="#1d2c42" fill-opacity="1"><g transform="translate(58.537019, 69.384795)"><g><path d="M 19.953125 -45.796875 C 24.109375 -45.796875 27.5625 -45.289062 30.3125 -44.28125 C 33.070312 -43.269531 35.144531 -41.757812 36.53125 -39.75 C 37.925781 -37.75 38.625 -35.253906 38.625 -32.265625 C 38.625 -30.410156 38.3125 -28.71875 37.6875 -27.1875 C 37.0625 -25.664062 36.164062 -24.300781 35 -23.09375 C 33.84375 -21.894531 32.460938 -20.847656 30.859375 -19.953125 L 44.203125 0 L 30.171875 0 L 20.453125 -16.671875 L 17.328125 -16.671875 L 17.328125 0 L 4.953125 0 L 4.953125 -45.796875 Z M 19.765625 -36.4375 L 17.328125 -36.4375 L 17.328125 -25.96875 L 19.640625 -25.96875 C 21.546875 -25.96875 23.101562 -26.382812 24.3125 -27.21875 C 25.519531 -28.050781 26.125 -29.546875 26.125 -31.703125 C 26.125 -33.179688 25.625 -34.335938 24.625 -35.171875 C 23.625 -36.015625 22.003906 -36.4375 19.765625 -36.4375 Z M 19.765625 -36.4375 "/></g></g></g><g fill="#1d2c42" fill-opacity="1"><g transform="translate(112.603945, 69.384795)"><g><path d="M 44.203125 0 L 31.765625 0 L 31.765625 -18.671875 L 17.390625 -18.671875 L 17.390625 0 L 4.953125 0 L 4.953125 -45.796875 L 17.390625 -45.796875 L 17.390625 -28.8125 L 31.765625 -28.8125 L 31.765625 -45.796875 L 44.203125 -45.796875 Z M 44.203125 0 "/></g></g></g><g fill="#1d2c42" fill-opacity="1"><g transform="translate(172.403028, 69.384795)"><g><path d="M 33.046875 0 L 30.796875 -8.578125 L 15.90625 -8.578125 L 13.59375 0 L 0 0 L 14.9375 -45.984375 L 31.453125 -45.984375 L 46.578125 0 Z M 28.21875 -18.734375 L 26.25 -26.25 C 26.039062 -27.0625 25.738281 -28.222656 25.34375 -29.734375 C 24.945312 -31.253906 24.554688 -32.820312 24.171875 -34.4375 C 23.785156 -36.0625 23.488281 -37.394531 23.28125 -38.4375 C 23.09375 -37.394531 22.820312 -36.101562 22.46875 -34.5625 C 22.125 -33.03125 21.769531 -31.507812 21.40625 -30 C 21.039062 -28.5 20.722656 -27.25 20.453125 -26.25 L 18.484375 -18.734375 Z M 28.21875 -18.734375 "/></g></g></g><g fill="#1d2c42" fill-opacity="1"><g transform="translate(229.633609, 69.384795)"><g><path d="M 24.90625 0 L 15.53125 -32.984375 L 15.25 -32.984375 C 15.332031 -32.128906 15.421875 -30.96875 15.515625 -29.5 C 15.609375 -28.039062 15.695312 -26.460938 15.78125 -24.765625 C 15.863281 -23.078125 15.90625 -21.453125 15.90625 -19.890625 L 15.90625 0 L 4.953125 0 L 4.953125 -45.796875 L 21.421875 -45.796875 L 30.984375 -13.28125 L 31.234375 -13.28125 L 40.59375 -45.796875 L 57.109375 -45.796875 L 57.109375 0 L 45.734375 0 L 45.734375 -20.078125 C 45.734375 -21.515625 45.757812 -23.0625 45.8125 -24.71875 C 45.863281 -26.382812 45.925781 -27.953125 46 -29.421875 C 46.070312 -30.898438 46.140625 -32.066406 46.203125 -32.921875 L 45.921875 -32.921875 L 36.6875 0 Z M 24.90625 0 "/></g></g></g></g></g></svg>